<?xml version="1.0" encoding="UTF-8" standalone="no"?>
<!-- Created with Inkscape (http://www.inkscape.org/) -->

<svg
   xmlns:dc="http://purl.org/dc/elements/1.1/"
   xmlns:cc="http://creativecommons.org/ns#"
   xmlns:rdf="http://www.w3.org/1999/02/22-rdf-syntax-ns#"
   xmlns:svg="http://www.w3.org/2000/svg"
   xmlns="http://www.w3.org/2000/svg"
   xmlns:sodipodi="http://sodipodi.sourceforge.net/DTD/sodipodi-0.dtd"
   xmlns:inkscape="http://www.inkscape.org/namespaces/inkscape"
   width="409.26859"
   height="283.27722"
   id="svg2"
   sodipodi:version="0.32"
   inkscape:version="0.91 r13725"
   sodipodi:docname="automobile.svg"
   inkscape:output_extension="org.inkscape.output.svg.inkscape"
   version="1.0"
   inkscape:export-filename="/home/dmpop/Downloads/automobile.png"
   inkscape:export-xdpi="180"
   inkscape:export-ydpi="180">
  <defs
     id="defs4">
    <inkscape:perspective
       sodipodi:type="inkscape:persp3d"
       inkscape:vp_x="0 : 526.18109 : 1"
       inkscape:vp_y="0 : 1000 : 0"
       inkscape:vp_z="744.09448 : 526.18109 : 1"
       inkscape:persp3d-origin="372.04724 : 350.78739 : 1"
       id="perspective10" />
  </defs>
  <sodipodi:namedview
     id="base"
     pagecolor="#ffffff"
     bordercolor="#666666"
     borderopacity="1.0"
     gridtolerance="10000"
     guidetolerance="10"
     objecttolerance="10"
     inkscape:pageopacity="0.0"
     inkscape:pageshadow="2"
     inkscape:zoom="0.7"
     inkscape:cx="-235.69716"
     inkscape:cy="132.4294"
     inkscape:document-units="px"
     inkscape:current-layer="layer1"
     inkscape:window-width="1920"
     inkscape:window-height="1015"
     inkscape:window-x="0"
     inkscape:window-y="0"
     showguides="true"
     inkscape:guide-bbox="true"
     showgrid="false"
     inkscape:window-maximized="1" />
  <metadata
     id="metadata7">
    <rdf:RDF>
      <cc:Work
         rdf:about="">
        <dc:format>image/svg+xml</dc:format>
        <dc:type
           rdf:resource="http://purl.org/dc/dcmitype/StillImage" />
      </cc:Work>
    </rdf:RDF>
  </metadata>
  <g
     inkscape:label="Layer 1"
     inkscape:groupmode="layer"
     id="layer1"
     transform="translate(-155.64976,-393.69058)">
    <path
       sodipodi:type="arc"
       style="fill:#e1f4fd;fill-opacity:1;stroke:none;stroke-opacity:1"
       id="path3298"
       sodipodi:cx="-352.9368"
       sodipodi:cy="-501.85406"
       sodipodi:rx="91.429985"
       sodipodi:ry="107.34904"
       d="m -262.33949,-516.30902 a 91.429985,107.34904 0 0 1 -37.28306,101.66415 91.429985,107.34904 0 0 1 -93.9653,8.94573 91.429985,107.34904 0 0 1 -50.74622,-93.28356 l 91.39727,-2.87136 z"
       transform="scale(-1,-1)"
       sodipodi:start="6.1481212"
       sodipodi:end="3.1148415" />
    <path
       style="fill:#ffd300;fill-opacity:1;stroke:none;stroke-width:0.99211043;stroke-opacity:1"
       d="M 455.53126,495.50447 L 188.22768,515.50893 L 179.09375,520.94643 L 170.57143,530.94643 L 159.13393,629.50893 L 207.72768,629.50893 L 207.72768,626.94643 L 217.94643,626.94643 C 215.87671,621.19271 214.69643,614.81106 214.69643,608.10268 C 214.69644,582.60961 231.33773,561.88393 251.82143,561.88393 C 272.30513,561.88388 288.91518,582.60962 288.91518,608.10268 C 288.91516,614.80807 287.79568,621.19472 285.72768,626.94643 L 427.82143,626.94643 C 427.75638,625.62684 427.69643,624.28879 427.69643,622.94643 C 427.69644,591.05424 446.35581,565.16518 469.35268,565.16518 C 492.34954,565.16516 511.00893,591.05424 511.00893,622.94643 C 511.00894,624.2888 510.949,625.62684 510.88393,626.94643 L 554.04018,626.94643 L 552.53125,608.22768 C 553.99857,605.90851 550.55804,581.75784 553.41518,600.22768 L 553.41518,530.22768 C 553.41518,521.91768 545.29661,508.08482 536.98661,508.08482 C 536.3476,508.08482 504.30059,495.27587 503.68304,495.35268 L 455.53126,495.50447 z"
       id="rect2299"
       sodipodi:nodetypes="ccccccccsssccssscccccscc" />
    <path
       style="fill:#000000"
       d="M 247.86942,675.83313 C 234.43841,666.57789 234.15132,648.66108 231.23274,634.07593 C 228.86986,620.83183 229.34863,608.63639 240.90779,598.09918 C 255.23611,588.33135 275.06606,591.36396 282.33651,608.69502 C 286.54474,621.13095 286.23432,600.55753 281.47861,597.8178 C 276.87976,581.34632 260.51744,572.30046 243.87903,573.36563 C 228.74448,580.06594 226.54309,599.67594 224.66583,614.33586 C 226.28739,628.18657 222.33559,644.99679 204.6925,637.94449 C 190.09231,634.45659 168.60523,643.53329 158.50052,631.86256 C 153.98585,607.22496 156.16019,581.88798 156.26016,556.93025 C 160.1325,535.73203 173.55775,513.60767 195.77327,508.05651 C 212.67981,499.91258 232.01404,500.83059 250.27327,499.34853 C 255.03347,487.46369 252.20418,471.97059 259.47202,461.60154 C 265.05935,448.43292 271.71278,434.1604 283.02327,425.06978 C 289.68763,414.87763 300.30736,407.80219 312.02327,403.51328 C 334.46369,394.3393 360.20642,389.93903 383.69908,397.65821 C 405.60302,400.94677 421.28111,418.91036 434.63195,435.22764 C 440.28647,448.48344 448.69167,457.61619 451.74286,471.76483 C 451.14425,495.46341 475.63111,484.33804 490.52327,486.43254 C 508.50806,485.4173 527.19168,490.12757 539.62706,503.93252 C 551.54223,516.16588 556.28021,532.88335 560.63352,549.16857 C 564.5113,563.70372 563.38985,574.51034 564.58831,587.57122 C 564.89522,599.4443 564.8184,611.32269 564.91834,623.19849 C 552.70205,625.95531 541.82234,631.09204 529.12828,631.40741 C 516.76105,631.78576 493.10824,640.07731 499.31791,618.35185 C 497.22884,599.15078 483.68984,578.15824 462.6467,577.626 C 445.4685,586.55169 442.32009,608.91649 441.50719,626.49296 C 449.10453,618.30866 454.78279,594.74888 473.57121,595.33161 C 492.95808,595.78074 499.3889,621.64263 495.67126,637.41455 C 498.16482,657.65873 482.59848,675.85868 461.50641,673.04819 C 443.00063,669.63641 443.23883,642.33077 437.18588,633.42031 C 419.61209,630.52324 401.52941,635.46136 383.71397,633.47297 C 362.71578,632.4265 341.89731,633.40968 321.18427,636.40617 C 307.57105,640.90108 282.73385,630.47927 282.77331,651.07946 C 279.23151,666.38176 264.58684,681.24111 247.86942,675.83313 z M 264.13688,665.40613 C 272.03263,653.21536 273.57953,636.43416 270.78387,622.08874 C 273.84767,603.76895 240.01102,594.87922 246.82984,615.82212 C 242.29481,631.11252 243.73804,648.60619 252.87118,662.31441 C 255.76991,664.95617 260.10593,668.16071 264.13688,665.40613 z M 478.92652,657.92902 C 485.36764,643.49446 485.11365,623.96598 476.64795,610.17526 C 464.12367,591.85781 456.56387,624.53882 454.28285,634.53376 C 452.21916,646.18965 466.65909,677.51905 478.92652,657.92902 z M 208.44564,625.3769 C 212.24994,610.39731 212.57722,593.93116 220.6721,580.09023 C 228.93557,563.16018 251.21174,556.57842 267.6732,565.65863 C 286.72596,572.42157 294.96457,593.01167 299.52253,611.04221 C 296.32118,635.4337 322.49709,624.5229 337.02327,624.48529 C 357.82972,621.68825 379.00387,620.19651 399.83545,623.02456 C 412.56336,621.22794 431.1924,627.0247 429.06518,607.96695 C 431.61794,591.33884 441.20643,575.71734 455.77327,567.6268 C 473.13937,562.37458 492.41445,571.90038 501.79824,586.94379 C 516.68812,595.39253 504.12772,630.48516 527.42555,620.4706 C 540.78624,619.71443 555.92386,617.72706 551.17731,600.27958 C 549.75833,571.76711 550.68168,540.73696 533.38563,516.45325 C 522.13158,500.57614 502.68855,493.37758 483.64218,495.53635 C 470.7906,493.29019 453.86077,501.89535 443.61995,495.02945 C 440.32677,475.92595 434.94905,456.66853 423.34849,440.71107 C 416.62543,430.70702 404.83102,416.97701 391.86847,411.79718 C 380.38543,401.35142 359.13611,401.13369 343.516,403.74341 C 319.8949,405.82498 299.35452,420.40782 286.87774,440.15765 C 276.09598,454.56709 268.34223,471.19417 267.12147,489.36382 C 267.86597,503.87135 261.21271,518.09055 244.84637,511.32756 C 225.94233,511.7687 205.03349,512.08678 188.97732,523.22956 C 172.77342,537.3563 167.39249,560.01202 168.84393,580.75485 C 171.86346,595.21065 161.85579,620.25027 176.84173,626.8578 C 187.36333,626.92851 198.04874,627.05852 208.44564,625.3769 z M 276.46793,515.42347 C 262.86581,513.8997 278.3323,502.46556 286.21429,505.75882 C 304.03595,505.21648 321.57947,502.59192 339.24085,500.78473 C 369.71868,499.09758 400.22016,496.00549 430.54857,493.87457 C 431.5095,508.72335 403.24118,502.1353 391.70769,506.43899 C 354.90366,509.18862 318.2635,512.79699 281.48568,515.86747 L 278.4533,515.80531 L 276.46794,515.42346 L 276.46793,515.42347 z M 350.10526,479.62012 C 347.9228,462.53436 345.69458,444.86581 347.86719,427.69165 C 345.40214,413.53072 363.12874,411.20655 358.24894,427.90118 C 354.32426,444.63186 368.54919,470.4507 354.09573,481.20609 C 352.63632,481.77967 350.6483,481.2167 350.10526,479.62012 z"
       id="path2258"
       sodipodi:nodetypes="cccccccccccccccccccccccccccccccccccccccccccccccccccccccccccccccccccccccccccccccccc" />
  </g>
</svg>
